<svg width="1200" height="800" viewBox="0 0 1200 800" fill="none" xmlns="http://www.w3.org/2000/svg">
  <defs>
    <linearGradient id="bg" x1="120" y1="70" x2="980" y2="720" gradientUnits="userSpaceOnUse">
      <stop stop-color="#06B6D4" stop-opacity="0.55"/>
      <stop offset="0.52" stop-color="#6366F1" stop-opacity="0.45"/>
      <stop offset="1" stop-color="#10B981" stop-opacity="0.4"/>
    </linearGradient>
    <linearGradient id="card" x1="350" y1="170" x2="810" y2="610" gradientUnits="userSpaceOnUse">
      <stop stop-color="#0E1726"/>
      <stop offset="1" stop-color="#131A2F"/>
    </linearGradient>
    <linearGradient id="line" x1="382" y1="202" x2="784" y2="580" gradientUnits="userSpaceOnUse">
      <stop stop-color="#22D3EE" stop-opacity="0.95"/>
      <stop offset="0.5" stop-color="#818CF8" stop-opacity="0.72"/>
      <stop offset="1" stop-color="#34D399" stop-opacity="0.9"/>
    </linearGradient>
    <filter id="blur" x="-120" y="-120" width="1440" height="1040" filterUnits="userSpaceOnUse" color-interpolation-filters="sRGB">
      <feGaussianBlur stdDeviation="58"/>
    </filter>
  </defs>

  <rect width="1200" height="800" rx="28" fill="#0B1020"/>

  <g opacity="0.9" filter="url(#blur)">
    <circle cx="260" cy="170" r="145" fill="#22D3EE" fill-opacity="0.5"/>
    <circle cx="930" cy="220" r="160" fill="#6366F1" fill-opacity="0.42"/>
    <circle cx="860" cy="640" r="170" fill="#10B981" fill-opacity="0.35"/>
  </g>

  <rect x="110" y="86" width="980" height="628" rx="26" fill="url(#bg)" fill-opacity="0.26"/>

  <rect x="355" y="150" width="490" height="500" rx="34" fill="url(#card)" stroke="url(#line)" stroke-opacity="0.5" stroke-width="2"/>

  <rect x="408" y="206" width="385" height="294" rx="24" fill="#0F172A" stroke="#334155" stroke-opacity="0.7"/>
  <rect x="438" y="236" width="325" height="184" rx="18" fill="url(#line)" fill-opacity="0.25"/>

  <rect x="438" y="452" width="216" height="16" rx="8" fill="#E2E8F0" fill-opacity="0.34"/>
  <rect x="438" y="481" width="294" height="12" rx="6" fill="#E2E8F0" fill-opacity="0.22"/>

  <path d="M610 286L656 338L610 388L564 338L610 286Z" fill="#E0F2FE" fill-opacity="0.8"/>
  <path d="M560 337L610 287L660 337L610 387L560 337Z" stroke="#22D3EE" stroke-opacity="0.8" stroke-width="2"/>

  <circle cx="434" cy="555" r="10" fill="#22D3EE" fill-opacity="0.8"/>
  <rect x="458" y="548" width="120" height="14" rx="7" fill="#E2E8F0" fill-opacity="0.35"/>

  <circle cx="754" cy="555" r="10" fill="#34D399" fill-opacity="0.85"/>
  <rect x="632" y="548" width="104" height="14" rx="7" fill="#E2E8F0" fill-opacity="0.35"/>

  <g opacity="0.38" stroke="#93C5FD" stroke-width="1">
    <path d="M145 130H1055"/>
    <path d="M145 670H1055"/>
    <path d="M145 130V670"/>
    <path d="M1055 130V670"/>
  </g>
</svg>
